HIERARCHY
ROOT Hips
{
 OFFSET 0.000000 0.000000 0.000000
 CHANNELS 6 Xposition Yposition Zposition Yrotation Xrotation Zrotation
 JOINT Chest
 {
  OFFSET 0.000000 9.585900 0.002600
  CHANNELS 3 Yrotation Xrotation Zrotation
  JOINT Chest2
  {
   OFFSET 0.000000 9.601200 -0.005300
   CHANNELS 3 Yrotation Xrotation Zrotation
   JOINT Chest3
   {
    OFFSET 0.000000 9.561800 0.000000
    CHANNELS 3 Yrotation Xrotation Zrotation
    JOINT Chest4
    {
     OFFSET 0.000000 9.552100 0.000000
     CHANNELS 3 Yrotation Xrotation Zrotation
     JOINT Neck
     {
      OFFSET 0.000000 14.453000 0.000000
      CHANNELS 3 Yrotation Xrotation Zrotation
      JOINT Head
      {
       OFFSET 0.000000 8.936500 -0.011300
       CHANNELS 3 Yrotation Xrotation Zrotation
       End Site
       {
        OFFSET 0.000000 17.073600 -0.006000
       }
      }
     }
     JOINT RightCollar
     {
      OFFSET -2.921100 9.558500 0.000000
      CHANNELS 3 Yrotation Xrotation Zrotation
      JOINT RightShoulder
      {
       OFFSET -13.519700 0.000000 0.000000
       CHANNELS 3 Yrotation Xrotation Zrotation
       JOINT RightElbow
       {
        OFFSET 0.000000 -29.696600 0.000000
        CHANNELS 3 Yrotation Xrotation Zrotation
        JOINT RightWrist
        {
         OFFSET 0.000000 -24.004700 0.000000
         CHANNELS 3 Yrotation Xrotation Zrotation
         End Site
         {
          OFFSET 0.000000 -17.728500 0.000000
         }
        }
       }
      }
     }
     JOINT LeftCollar
     {
      OFFSET 2.921100 9.558500 0.000000
      CHANNELS 3 Yrotation Xrotation Zrotation
      JOINT LeftShoulder
      {
       OFFSET 13.519700 0.000000 0.000000
       CHANNELS 3 Yrotation Xrotation Zrotation
       JOINT LeftElbow
       {
        OFFSET 0.000000 -29.696600 0.000000
        CHANNELS 3 Yrotation Xrotation Zrotation
        JOINT LeftWrist
        {
         OFFSET 0.000000 -24.004700 0.000000
         CHANNELS 3 Yrotation Xrotation Zrotation
         End Site
         {
          OFFSET 0.000000 -17.728500 0.000000
         }
        }
       }
      }
     }
    }
   }
  }
 }
 JOINT RightHip
 {
  OFFSET -7.771700 -0.012900 -0.001300
  CHANNELS 3 Yrotation Xrotation Zrotation
  JOINT RightKnee
  {
   OFFSET 0.000000 -40.869800 0.001200
   CHANNELS 3 Yrotation Xrotation Zrotation
   JOINT RightAnkle
   {
    OFFSET 0.000000 -39.717900 0.002100
    CHANNELS 3 Yrotation Xrotation Zrotation
    JOINT RightToe
    {
     OFFSET 0.000000 -4.965400 11.033500
     CHANNELS 3 Yrotation Xrotation Zrotation
     End Site
     {
      OFFSET 0.000000 -1.423100 5.872300
     }
    }
   }
  }
 }
 JOINT LeftHip
 {
  OFFSET 7.771700 -0.012900 -0.001300
  CHANNELS 3 Yrotation Xrotation Zrotation
  JOINT LeftKnee
  {
   OFFSET 0.000000 -40.869800 0.001200
   CHANNELS 3 Yrotation Xrotation Zrotation
   JOINT LeftAnkle
   {
    OFFSET 0.000000 -39.717900 0.002100
    CHANNELS 3 Yrotation Xrotation Zrotation
    JOINT LeftToe
    {
     OFFSET 0.000000 -4.965400 11.033500
     CHANNELS 3 Yrotation Xrotation Zrotation
     End Site
     {
      OFFSET 0.000000 -1.423100 5.872300
     }
    }
   }
  }
 }
}
MOTION
Frames: 12
Frame Time: 0.008333
0.000000 85.388000 0.000000 0.000000 -5.767877 0.000000 0.000000 11.653817 0.000000 0.000000 -5.885947 0.000000 0.000000 -0.000000 0.000000 0.000000 -0.000000 0.000000 0.000000 12.528835 0.000000 0.000000 0.711642 0.000000 0.000000 -0.000000 0.000000 0.000000 0.000000 -90.000000 0.000000 -2.309062 0.000000 0.000000 2.309062 0.000000 0.000000 -0.000000 0.000000 0.000000 -0.000000 90.000000 0.000000 -2.309062 0.000000 0.000000 2.309062 0.000000 0.000000 8.520406 0.000000 0.000000 1.905762 0.000000 -0.000000 -4.658285 0.000000 0.000000 -0.000000 0.000000 0.000000 8.520406 0.000000 0.000000 1.905762 0.000000 -0.000000 -4.658285 0.000000 0.000000 -0.000000 0.000000
-3.788890 58.855993 49.266653 -173.223611 -30.577038 -5.995237 0.537786 21.823291 3.760935 -0.009950 3.022844 0.303034 -0.056588 4.892315 0.509635 0.088747 18.596359 1.943367 3.374743 13.990519 -3.814318 7.820503 -9.439576 -8.478539 3.183266 -2.663640 -0.560317 16.467579 -27.591300 -23.422153 150.670802 -69.080299 -118.564267 20.727092 -16.479578 -41.549302 -7.890961 -5.871985 -0.221950 -0.869573 -16.280978 6.915504 -149.086361 -72.659316 118.436335 -8.313999 -13.703533 38.714213 1.389511 -38.533041 -5.942371 -0.086890 68.784266 0.674237 3.222558 5.726659 6.491115 -0.049451 0.216389 -0.019653 -11.285791 -46.766988 0.715182 26.876417 65.968460 24.668402 -9.027657 31.037521 4.778573 0.208771 -16.640213 -4.912866
-3.792508 58.854412 49.268747 -173.181829 -30.612280 -6.063374 0.446006 21.830718 3.804490 -0.041333 3.020486 0.317298 -0.058825 4.907950 0.515056 0.015500 18.606763 1.980919 3.631475 13.991156 -3.948554 8.353201 -9.396496 -8.827972 3.242041 -2.689482 -0.602693 16.569614 -27.742624 -23.479302 150.863965 -68.891017 -118.821262 20.726194 -16.312836 -40.905633 -7.970442 -5.923445 -0.289595 -0.914876 -16.330255 7.443265 -149.788006 -72.651613 119.004196 -8.316733 -13.641232 38.649620 1.516846 -38.470245 -5.935455 -0.225124 68.768426 0.583264 3.199843 5.726070 6.563338 -0.079916 0.209121 -0.006614 -11.287702 -46.730171 0.752004 26.813300 65.983005 24.627996 -9.063291 31.042667 4.754918 0.242127 -16.628105 -4.888828
-3.798603 58.852620 49.271595 -173.147362 -30.652541 -6.128335 0.357778 21.842734 3.850691 -0.053886 3.026346 0.325760 -0.079015 4.916914 0.528386 -0.056723 18.618422 2.020772 3.885158 13.983820 -4.083467 8.881037 -9.366277 -9.178059 3.304722 -2.715020 -0.644659 16.681170 -27.907357 -23.547496 151.048944 -68.705841 -119.054243 20.763145 -16.165207 -40.326460 -8.056865 -5.986645 -0.356257 -0.988920 -16.370769 7.984576 -150.447495 -72.620066 119.554505 -8.315929 -13.567612 38.581704 1.650335 -38.406018 -5.923823 -0.384728 68.752931 0.464039 3.181611 5.735782 6.641227 -0.084691 0.185211 -0.001046 -11.282190 -46.689771 0.785839 26.752659 65.996898 24.591253 -9.096655 31.052250 4.726370 0.263926 -16.621904 -4.856431
-3.808402 58.849087 49.278105 -173.134091 -30.677181 -6.171251 0.279329 21.839268 3.888011 -0.066220 3.033049 0.334648 -0.098793 4.927228 0.542470 -0.126865 18.631812 2.063267 4.130435 13.969795 -4.216536 9.392967 -9.347591 -9.521952 3.367132 -2.741997 -0.685502 16.807319 -28.083133 -23.627561 151.225483 -68.525321 -119.265679 20.812298 -16.024214 -39.804798 -8.147668 -6.061236 -0.421423 -1.096636 -16.403541 8.537397 -151.062629 -72.573639 120.091310 -8.313250 -13.485024 38.511227 1.790541 -38.367218 -5.915144 -0.536906 68.738549 0.328092 3.192115 5.753295 6.702000 -0.115018 0.159885 0.031250 -11.254763 -46.668560 0.810941 26.726520 66.005411 24.574448 -9.133990 31.056057 4.732628 0.287452 -16.611130 -4.845946
-3.818219 58.846563 49.284551 -173.131704 -30.707371 -6.218704 0.256840 21.855541 3.938468 -0.113713 3.026793 0.362571 -0.118447 4.939196 0.557222 -0.196077 18.647596 2.107872 4.361601 13.950030 -4.346007 9.877647 -9.339663 -9.854240 3.422629 -2.774691 -0.724860 16.953626 -28.266921 -23.718745 151.394435 -68.353924 -119.457018 20.851021 -15.885643 -39.336562 -8.240231 -6.149288 -0.481883 -1.243487 -16.426171 9.097936 -151.648149 -72.521421 120.634099 -8.305669 -13.401975 38.438771 1.896548 -38.323206 -5.861080 -0.686554 68.717675 0.161723 3.168945 5.767177 6.784081 -0.116509 0.147354 0.039966 -11.233515 -46.641985 0.855805 26.693784 66.022320 24.544365 -9.158288 31.054602 4.748149 0.299732 -16.601244 -4.835595
-3.826830 58.849834 49.283693 -173.065411 -30.784158 -6.318057 0.137850 21.909180 4.020306 -0.108664 3.043422 0.362802 -0.137865 4.952884 0.572267 -0.263994 18.665880 2.153185 4.572756 13.924981 -4.468588 10.322883 -9.343138 -10.166731 3.470811 -2.814738 -0.758497 17.119765 -28.455102 -23.817518 151.557987 -68.198131 -119.631718 20.870574 -15.740696 -38.919549 -8.332116 -6.250165 -0.531291 -1.426672 -16.440252 9.659439 -152.216823 -72.474013 121.196196 -8.292660 -13.329216 38.371045 1.892986 -38.214424 -5.742675 -0.830094 68.690947 -0.040278 3.143560 5.771525 6.871093 -0.116022 0.135858 0.047997 -11.282879 -46.561057 0.923818 26.696357 66.034248 24.538462 -9.187204 31.072026 4.767651 0.307170 -16.610943 -4.825273
-3.841196 58.850119 49.289679 -173.060772 -30.821988 -6.350454 0.055490 21.919818 4.064516 -0.102611 3.059868 0.363030 -0.156899 4.968147 0.587174 -0.329943 18.686429 2.197723 4.759372 13.895886 -4.581103 10.718815 -9.357282 -10.451610 3.517239 -2.858274 -0.783535 17.303054 -28.642590 -23.920387 151.729494 -68.063707 -119.809525 20.868623 -15.581069 -38.545533 -8.416296 -6.360945 -0.562615 -1.633676 -16.448349 10.211367 -152.789625 -72.434280 121.790018 -8.279398 -13.268037 38.316418 1.930054 -38.163911 -5.645259 -0.961832 68.667233 -0.271514 3.118962 5.775470 6.968135 -0.116566 0.134648 0.054979 -11.269873 -46.529213 0.968247 26.735978 66.043518 24.528004 -9.172527 31.086289 4.855267 0.275770 -16.621483 -4.826725
-3.850614 58.855023 49.291152 -173.020754 -30.885008 -6.435819 -0.001830 21.968756 4.140380 -0.127057 3.063761 0.381239 -0.175431 4.983862 0.602191 -0.393541 18.707514 2.242551 4.916210 13.865354 -4.682714 11.055007 -9.378391 -10.705024 3.563471 -2.901200 -0.803324 17.498542 -28.826137 -24.021067 151.917968 -67.955428 -120.004283 20.844287 -15.408052 -38.208308 -8.487837 -6.479091 -0.576211 -1.854605 -16.448759 10.746821 -153.382452 -72.391985 122.424141 -8.269570 -13.210319 38.273039 1.882920 -38.072344 -5.476418 -1.118775 68.629652 -0.546832 3.100735 5.773997 7.062956 -0.111245 0.137862 0.060270 -11.324374 -46.460374 1.058534 26.728962 66.061026 24.496099 -9.197120 31.087883 4.872810 0.278821 -16.620888 -4.812882
-3.853541 58.862962 49.290893 -173.004121 -30.957894 -6.550462 0.015549 22.036828 4.255932 -0.179423 3.053542 0.415038 -0.192926 4.998375 0.617701 -0.452883 18.726397 2.289736 5.037228 13.836680 -4.773755 11.319864 -9.401507 -10.924964 3.606249 -2.940964 -0.822375 17.699807 -29.002881 -24.110881 152.124854 -67.873556 -120.218980 20.802124 -15.225126 -37.904449 -8.547327 -6.599550 -0.576901 -2.081396 -16.445386 11.263346 -153.989513 -72.339039 123.085132 -8.261707 -13.153432 38.231419 1.810755 -37.965271 -5.240726 -1.306417 68.573338 -0.853793 3.088959 5.775530 7.149748 -0.109312 0.146357 0.064329 -11.408166 -46.372276 1.204642 26.734965 66.073932 24.472633 -9.155549 31.106718 4.944144 0.240021 -16.645607 -4.822718
-3.868121 58.868216 49.296317 -173.009275 -30.996240 -6.581420 -0.072648 22.035126 4.305378 -0.151170 3.080887 0.398836 -0.209363 5.010822 0.633411 -0.507943 18.741667 2.338619 5.119398 13.812280 -4.855341 11.507858 -9.423120 -11.111964 3.646114 -2.973809 -0.842930 17.903442 -29.170607 -24.184339 152.350125 -67.816697 -120.456272 20.750965 -15.040269 -37.631481 -8.592752 -6.716532 -0.565842 -2.298974 -16.443526 11.758592 -154.620519 -72.272974 123.768223 -8.255361 -13.095765 38.186830 1.807393 -37.906291 -5.106565 -1.479201 68.534096 -1.148925 3.078524 5.765101 7.236958 -0.107708 0.162035 0.068509 -11.421108 -46.329998 1.249720 26.760665 66.077121 24.464993 -9.121625 31.097857 5.001656 0.211828 -16.638843 -4.826624
-3.877476 58.876288 49.299718 -172.989078 -31.042132 -6.659964 -0.143369 22.050571 4.378124 -0.145437 3.094368 0.401964 -0.225214 5.020782 0.648885 -0.560746 18.752806 2.387405 5.161948 13.793257 -4.928279 11.617704 -9.441551 -11.267216 3.688763 -2.997173 -0.865575 18.102259 -29.326543 -24.238926 152.594062 -67.779124 -120.716411 20.698123 -14.863980 -37.396030 -8.622868 -6.827152 -0.543852 -2.488852 -16.440312 12.228051 -155.293040 -72.189739 124.479056 -8.247839 -13.034637 38.139400 1.751309 -37.828133 -4.922509 -1.666920 68.482860 -1.448742 3.070576 5.757238 7.312498 -0.105346 0.174888 0.070226 -11.472626 -46.275710 1.351707 26.721412 66.097944 24.397008 -9.111900 31.100511 5.033389 0.206987 -16.640772 -4.816408
